<mxfile host="app.diagrams.net" modified="2023-05-19T10:29:14.717Z" agent="Mozilla/5.0 (Macintosh; Intel Mac OS X 10_15_7) AppleWebKit/605.1.15 (KHTML, like Gecko) Version/16.2 Safari/605.1.15" etag="33_zlMLF4laC74zrixat" version="21.3.2" type="device">
  <diagram name="Page-1" id="52a04d89-c75d-2922-d76d-85b35f80e030">
    <mxGraphModel dx="1434" dy="855" grid="1" gridSize="10" guides="1" tooltips="1" connect="1" arrows="1" fold="1" page="1" pageScale="1" pageWidth="1100" pageHeight="850" background="none" math="0" shadow="0">
      <root>
        <mxCell id="0" />
        <mxCell id="1" parent="0" />
        <mxCell id="Jwd4gEh87zWLfQr8mGa5-42" value="" style="rounded=1;whiteSpace=wrap;html=1;fillColor=none;dashed=1;" vertex="1" parent="1">
          <mxGeometry x="40" y="130" width="1400" height="278" as="geometry" />
        </mxCell>
        <mxCell id="Jwd4gEh87zWLfQr8mGa5-45" value="" style="rounded=1;whiteSpace=wrap;html=1;fillColor=none;dashed=1;" vertex="1" parent="1">
          <mxGeometry x="40" y="430" width="1400" height="170" as="geometry" />
        </mxCell>
        <mxCell id="Jwd4gEh87zWLfQr8mGa5-65" style="edgeStyle=orthogonalEdgeStyle;rounded=0;orthogonalLoop=1;jettySize=auto;html=1;exitX=1;exitY=0.5;exitDx=0;exitDy=0;entryX=0.5;entryY=0;entryDx=0;entryDy=0;" edge="1" parent="1" source="Jwd4gEh87zWLfQr8mGa5-25" target="Jwd4gEh87zWLfQr8mGa5-34">
          <mxGeometry relative="1" as="geometry" />
        </mxCell>
        <mxCell id="Jwd4gEh87zWLfQr8mGa5-25" value="" style="rounded=0;whiteSpace=wrap;html=1;" vertex="1" parent="1">
          <mxGeometry x="880" y="130" width="290" height="257" as="geometry" />
        </mxCell>
        <mxCell id="1fdf3b25b50cf41e-27" style="edgeStyle=none;html=1;labelBackgroundColor=none;startFill=0;startSize=8;endFill=1;endSize=8;fontFamily=Verdana;fontSize=12;" parent="1" source="17472293e6e8944d-30" target="1fdf3b25b50cf41e-1" edge="1">
          <mxGeometry relative="1" as="geometry" />
        </mxCell>
        <mxCell id="17472293e6e8944d-30" value="Input URL" style="whiteSpace=wrap;html=1;rounded=0;shadow=0;comic=0;labelBackgroundColor=none;strokeWidth=1;fontFamily=Verdana;fontSize=12;align=center;" parent="1" vertex="1">
          <mxGeometry x="60" y="470" width="120" height="50" as="geometry" />
        </mxCell>
        <mxCell id="1fdf3b25b50cf41e-1" value="LinkInfo" style="swimlane;html=1;fontStyle=0;childLayout=stackLayout;horizontal=1;startSize=26;fillColor=#e0e0e0;horizontalStack=0;resizeParent=1;resizeLast=0;collapsible=1;marginBottom=0;swimlaneFillColor=#ffffff;align=center;rounded=1;shadow=0;comic=0;labelBackgroundColor=none;strokeWidth=1;fontFamily=Verdana;fontSize=12" parent="1" vertex="1">
          <mxGeometry x="240" y="468" width="130" height="52" as="geometry" />
        </mxCell>
        <mxCell id="1fdf3b25b50cf41e-2" value="Crawl dữ liệu từ URL" style="text;html=1;strokeColor=none;fillColor=none;spacingLeft=4;spacingRight=4;whiteSpace=wrap;overflow=hidden;rotatable=0;points=[[0,0.5],[1,0.5]];portConstraint=eastwest;align=center;" parent="1fdf3b25b50cf41e-1" vertex="1">
          <mxGeometry y="26" width="130" height="26" as="geometry" />
        </mxCell>
        <mxCell id="Jwd4gEh87zWLfQr8mGa5-58" style="edgeStyle=orthogonalEdgeStyle;rounded=0;orthogonalLoop=1;jettySize=auto;html=1;entryX=0.017;entryY=0.259;entryDx=0;entryDy=0;entryPerimeter=0;" edge="1" parent="1" source="Jwd4gEh87zWLfQr8mGa5-1" target="Jwd4gEh87zWLfQr8mGa5-3">
          <mxGeometry relative="1" as="geometry" />
        </mxCell>
        <mxCell id="Jwd4gEh87zWLfQr8mGa5-1" value="Raw Data" style="html=1;rounded=0;shadow=0;comic=0;labelBackgroundColor=none;strokeWidth=2;fontFamily=Verdana;fontSize=12;align=center;shape=mxgraph.ios7ui.horLines;" vertex="1" parent="1">
          <mxGeometry x="60" y="210" width="135" height="50" as="geometry" />
        </mxCell>
        <mxCell id="Jwd4gEh87zWLfQr8mGa5-2" value="Train_test_split" style="swimlane;html=1;fontStyle=0;childLayout=stackLayout;horizontal=1;startSize=26;fillColor=#e0e0e0;horizontalStack=0;resizeParent=1;resizeLast=0;collapsible=1;marginBottom=0;swimlaneFillColor=#ffffff;align=center;rounded=1;shadow=0;comic=0;labelBackgroundColor=none;strokeWidth=1;fontFamily=Verdana;fontSize=12" vertex="1" parent="1">
          <mxGeometry x="240" y="195" width="120" height="80" as="geometry" />
        </mxCell>
        <mxCell id="Jwd4gEh87zWLfQr8mGa5-3" value="Chia tập train (85%) + test (15%)" style="text;html=1;strokeColor=none;fillColor=none;spacingLeft=4;spacingRight=4;whiteSpace=wrap;overflow=hidden;rotatable=0;points=[[0,0.5],[1,0.5]];portConstraint=eastwest;align=center;" vertex="1" parent="Jwd4gEh87zWLfQr8mGa5-2">
          <mxGeometry y="26" width="120" height="54" as="geometry" />
        </mxCell>
        <mxCell id="Jwd4gEh87zWLfQr8mGa5-62" style="edgeStyle=orthogonalEdgeStyle;rounded=0;orthogonalLoop=1;jettySize=auto;html=1;entryX=0;entryY=0.432;entryDx=0;entryDy=0;entryPerimeter=0;" edge="1" parent="1" source="Jwd4gEh87zWLfQr8mGa5-4" target="Jwd4gEh87zWLfQr8mGa5-8">
          <mxGeometry relative="1" as="geometry" />
        </mxCell>
        <mxCell id="Jwd4gEh87zWLfQr8mGa5-4" value="Trainset" style="html=1;rounded=0;shadow=0;comic=0;labelBackgroundColor=none;strokeWidth=2;fontFamily=Verdana;fontSize=12;align=center;shape=mxgraph.ios7ui.horLines;" vertex="1" parent="1">
          <mxGeometry x="410" y="173" width="135" height="50" as="geometry" />
        </mxCell>
        <mxCell id="Jwd4gEh87zWLfQr8mGa5-20" style="edgeStyle=orthogonalEdgeStyle;rounded=0;orthogonalLoop=1;jettySize=auto;html=1;entryX=-0.011;entryY=0.611;entryDx=0;entryDy=0;entryPerimeter=0;" edge="1" parent="1" source="Jwd4gEh87zWLfQr8mGa5-5" target="Jwd4gEh87zWLfQr8mGa5-8">
          <mxGeometry relative="1" as="geometry" />
        </mxCell>
        <mxCell id="Jwd4gEh87zWLfQr8mGa5-5" value="Testset" style="html=1;rounded=0;shadow=0;comic=0;labelBackgroundColor=none;strokeWidth=2;fontFamily=Verdana;fontSize=12;align=center;shape=mxgraph.ios7ui.horLines;" vertex="1" parent="1">
          <mxGeometry x="410" y="263" width="135" height="50" as="geometry" />
        </mxCell>
        <mxCell id="Jwd4gEh87zWLfQr8mGa5-63" style="edgeStyle=orthogonalEdgeStyle;rounded=0;orthogonalLoop=1;jettySize=auto;html=1;exitX=1;exitY=0.25;exitDx=0;exitDy=0;entryX=0.007;entryY=0.276;entryDx=0;entryDy=0;entryPerimeter=0;" edge="1" parent="1" source="Jwd4gEh87zWLfQr8mGa5-8" target="Jwd4gEh87zWLfQr8mGa5-25">
          <mxGeometry relative="1" as="geometry" />
        </mxCell>
        <mxCell id="Jwd4gEh87zWLfQr8mGa5-64" style="edgeStyle=orthogonalEdgeStyle;rounded=0;orthogonalLoop=1;jettySize=auto;html=1;exitX=1;exitY=0.75;exitDx=0;exitDy=0;" edge="1" parent="1" source="Jwd4gEh87zWLfQr8mGa5-8" target="Jwd4gEh87zWLfQr8mGa5-25">
          <mxGeometry relative="1" as="geometry" />
        </mxCell>
        <mxCell id="Jwd4gEh87zWLfQr8mGa5-8" value="" style="whiteSpace=wrap;html=1;aspect=fixed;" vertex="1" parent="1">
          <mxGeometry x="598" y="153" width="190" height="190" as="geometry" />
        </mxCell>
        <mxCell id="Jwd4gEh87zWLfQr8mGa5-10" value="Data preprocessing" style="swimlane;html=1;fontStyle=0;childLayout=stackLayout;horizontal=1;startSize=26;fillColor=#e0e0e0;horizontalStack=0;resizeParent=1;resizeLast=0;collapsible=1;marginBottom=0;swimlaneFillColor=#ffffff;align=center;rounded=1;shadow=0;comic=0;labelBackgroundColor=none;strokeWidth=1;fontFamily=Verdana;fontSize=12" vertex="1" parent="1">
          <mxGeometry x="609.5" y="171" width="167" height="52" as="geometry" />
        </mxCell>
        <mxCell id="Jwd4gEh87zWLfQr8mGa5-11" value="Tiền xử lý dữ liệu text" style="text;html=1;strokeColor=none;fillColor=none;spacingLeft=4;spacingRight=4;whiteSpace=wrap;overflow=hidden;rotatable=0;points=[[0,0.5],[1,0.5]];portConstraint=eastwest;align=center;" vertex="1" parent="Jwd4gEh87zWLfQr8mGa5-10">
          <mxGeometry y="26" width="167" height="26" as="geometry" />
        </mxCell>
        <mxCell id="Jwd4gEh87zWLfQr8mGa5-12" value="LabelEncoder" style="swimlane;html=1;fontStyle=0;childLayout=stackLayout;horizontal=1;startSize=26;fillColor=#e0e0e0;horizontalStack=0;resizeParent=1;resizeLast=0;collapsible=1;marginBottom=0;swimlaneFillColor=#ffffff;align=center;rounded=1;shadow=0;comic=0;labelBackgroundColor=none;strokeWidth=1;fontFamily=Verdana;fontSize=12" vertex="1" parent="1">
          <mxGeometry x="609.5" y="263" width="167" height="52" as="geometry" />
        </mxCell>
        <mxCell id="Jwd4gEh87zWLfQr8mGa5-13" value="Encode label" style="text;html=1;strokeColor=none;fillColor=none;spacingLeft=4;spacingRight=4;whiteSpace=wrap;overflow=hidden;rotatable=0;points=[[0,0.5],[1,0.5]];portConstraint=eastwest;align=center;" vertex="1" parent="Jwd4gEh87zWLfQr8mGa5-12">
          <mxGeometry y="26" width="167" height="26" as="geometry" />
        </mxCell>
        <mxCell id="Jwd4gEh87zWLfQr8mGa5-23" value="" style="endArrow=none;html=1;rounded=0;exitX=0.01;exitY=0.663;exitDx=0;exitDy=0;exitPerimeter=0;" edge="1" parent="1" source="Jwd4gEh87zWLfQr8mGa5-25">
          <mxGeometry width="50" height="50" relative="1" as="geometry">
            <mxPoint x="670" y="420" as="sourcePoint" />
            <mxPoint x="1170" y="300" as="targetPoint" />
          </mxGeometry>
        </mxCell>
        <mxCell id="Jwd4gEh87zWLfQr8mGa5-24" value="Neural Network Embeddings" style="shape=cube;whiteSpace=wrap;html=1;boundedLbl=1;backgroundOutline=1;darkOpacity=0.05;darkOpacity2=0.1;" vertex="1" parent="1">
          <mxGeometry x="920" y="317" width="220" height="60" as="geometry" />
        </mxCell>
        <mxCell id="Jwd4gEh87zWLfQr8mGa5-26" value="TF-IDF vectorization&amp;nbsp;( Feature extraction )" style="shape=cube;whiteSpace=wrap;html=1;boundedLbl=1;backgroundOutline=1;darkOpacity=0.05;darkOpacity2=0.1;size=10;" vertex="1" parent="1">
          <mxGeometry x="900" y="160" width="100" height="127" as="geometry" />
        </mxCell>
        <mxCell id="Jwd4gEh87zWLfQr8mGa5-27" value="Logistic Regression" style="shape=cube;whiteSpace=wrap;html=1;boundedLbl=1;backgroundOutline=1;darkOpacity=0.05;darkOpacity2=0.1;size=10;" vertex="1" parent="1">
          <mxGeometry x="1040" y="150" width="110" height="67" as="geometry" />
        </mxCell>
        <mxCell id="Jwd4gEh87zWLfQr8mGa5-28" value="Support Vector Machine Classification" style="shape=cube;whiteSpace=wrap;html=1;boundedLbl=1;backgroundOutline=1;darkOpacity=0.05;darkOpacity2=0.1;size=10;" vertex="1" parent="1">
          <mxGeometry x="1040" y="225" width="110" height="67" as="geometry" />
        </mxCell>
        <mxCell id="Jwd4gEh87zWLfQr8mGa5-67" style="edgeStyle=orthogonalEdgeStyle;rounded=0;orthogonalLoop=1;jettySize=auto;html=1;entryX=-0.018;entryY=0.155;entryDx=0;entryDy=0;entryPerimeter=0;" edge="1" parent="1" source="Jwd4gEh87zWLfQr8mGa5-29" target="Jwd4gEh87zWLfQr8mGa5-33">
          <mxGeometry relative="1" as="geometry" />
        </mxCell>
        <mxCell id="Jwd4gEh87zWLfQr8mGa5-29" value="Title" style="whiteSpace=wrap;html=1;rounded=0;shadow=0;comic=0;labelBackgroundColor=none;strokeWidth=1;fontFamily=Verdana;fontSize=12;align=center;" vertex="1" parent="1">
          <mxGeometry x="425" y="450" width="120" height="50" as="geometry" />
        </mxCell>
        <mxCell id="Jwd4gEh87zWLfQr8mGa5-68" style="edgeStyle=orthogonalEdgeStyle;rounded=0;orthogonalLoop=1;jettySize=auto;html=1;entryX=0;entryY=0.5;entryDx=0;entryDy=0;" edge="1" parent="1" source="Jwd4gEh87zWLfQr8mGa5-30" target="Jwd4gEh87zWLfQr8mGa5-33">
          <mxGeometry relative="1" as="geometry" />
        </mxCell>
        <mxCell id="Jwd4gEh87zWLfQr8mGa5-30" value="Content" style="whiteSpace=wrap;html=1;rounded=0;shadow=0;comic=0;labelBackgroundColor=none;strokeWidth=1;fontFamily=Verdana;fontSize=12;align=center;" vertex="1" parent="1">
          <mxGeometry x="425" y="520" width="120" height="50" as="geometry" />
        </mxCell>
        <mxCell id="Jwd4gEh87zWLfQr8mGa5-31" value="Emsemble Classifier" style="shape=cube;whiteSpace=wrap;html=1;boundedLbl=1;backgroundOutline=1;darkOpacity=0.05;darkOpacity2=0.1;" vertex="1" parent="1">
          <mxGeometry x="880" y="454" width="160" height="116" as="geometry" />
        </mxCell>
        <mxCell id="Jwd4gEh87zWLfQr8mGa5-32" value="Data preprocessing" style="swimlane;html=1;fontStyle=0;childLayout=stackLayout;horizontal=1;startSize=26;fillColor=#e0e0e0;horizontalStack=0;resizeParent=1;resizeLast=0;collapsible=1;marginBottom=0;swimlaneFillColor=#ffffff;align=center;rounded=1;shadow=0;comic=0;labelBackgroundColor=none;strokeWidth=1;fontFamily=Verdana;fontSize=12" vertex="1" parent="1">
          <mxGeometry x="598" y="458" width="167" height="110" as="geometry" />
        </mxCell>
        <mxCell id="Jwd4gEh87zWLfQr8mGa5-33" value="Tiền xử lý dữ liệu text" style="text;html=1;strokeColor=none;fillColor=none;spacingLeft=4;spacingRight=4;whiteSpace=wrap;overflow=hidden;rotatable=0;points=[[0,0.5],[1,0.5]];portConstraint=eastwest;align=center;" vertex="1" parent="Jwd4gEh87zWLfQr8mGa5-32">
          <mxGeometry y="26" width="167" height="84" as="geometry" />
        </mxCell>
        <mxCell id="Jwd4gEh87zWLfQr8mGa5-34" value="Model Evaluation" style="swimlane;fontStyle=0;childLayout=stackLayout;horizontal=1;startSize=30;horizontalStack=0;resizeParent=1;resizeParentMax=0;resizeLast=0;collapsible=1;marginBottom=0;whiteSpace=wrap;html=1;" vertex="1" parent="1">
          <mxGeometry x="1240" y="230" width="160" height="120" as="geometry" />
        </mxCell>
        <mxCell id="Jwd4gEh87zWLfQr8mGa5-35" value="Performance" style="text;strokeColor=none;fillColor=default;align=left;verticalAlign=middle;spacingLeft=4;spacingRight=4;overflow=hidden;points=[[0,0.5],[1,0.5]];portConstraint=eastwest;rotatable=0;whiteSpace=wrap;html=1;" vertex="1" parent="Jwd4gEh87zWLfQr8mGa5-34">
          <mxGeometry y="30" width="160" height="30" as="geometry" />
        </mxCell>
        <mxCell id="Jwd4gEh87zWLfQr8mGa5-36" value="Confusion matrix" style="text;strokeColor=none;fillColor=default;align=left;verticalAlign=middle;spacingLeft=4;spacingRight=4;overflow=hidden;points=[[0,0.5],[1,0.5]];portConstraint=eastwest;rotatable=0;whiteSpace=wrap;html=1;" vertex="1" parent="Jwd4gEh87zWLfQr8mGa5-34">
          <mxGeometry y="60" width="160" height="30" as="geometry" />
        </mxCell>
        <mxCell id="Jwd4gEh87zWLfQr8mGa5-37" value="The most wrong prediction" style="text;strokeColor=none;fillColor=default;align=left;verticalAlign=middle;spacingLeft=4;spacingRight=4;overflow=hidden;points=[[0,0.5],[1,0.5]];portConstraint=eastwest;rotatable=0;whiteSpace=wrap;html=1;" vertex="1" parent="Jwd4gEh87zWLfQr8mGa5-34">
          <mxGeometry y="90" width="160" height="30" as="geometry" />
        </mxCell>
        <mxCell id="Jwd4gEh87zWLfQr8mGa5-81" style="edgeStyle=orthogonalEdgeStyle;rounded=0;orthogonalLoop=1;jettySize=auto;html=1;exitX=0.5;exitY=1;exitDx=0;exitDy=0;entryX=0;entryY=1;entryDx=0;entryDy=-15;entryPerimeter=0;" edge="1" parent="1" source="Jwd4gEh87zWLfQr8mGa5-38" target="Jwd4gEh87zWLfQr8mGa5-41">
          <mxGeometry relative="1" as="geometry" />
        </mxCell>
        <mxCell id="Jwd4gEh87zWLfQr8mGa5-38" value="LabelEncoder" style="swimlane;html=1;fontStyle=0;childLayout=stackLayout;horizontal=1;startSize=26;fillColor=#e0e0e0;horizontalStack=0;resizeParent=1;resizeLast=0;collapsible=1;marginBottom=0;swimlaneFillColor=#ffffff;align=center;rounded=1;shadow=0;comic=0;labelBackgroundColor=none;strokeWidth=1;fontFamily=Verdana;fontSize=12" vertex="1" parent="1">
          <mxGeometry x="1120" y="470" width="140" height="90" as="geometry" />
        </mxCell>
        <mxCell id="Jwd4gEh87zWLfQr8mGa5-39" value="Inverse transform" style="text;html=1;strokeColor=none;fillColor=none;spacingLeft=4;spacingRight=4;whiteSpace=wrap;overflow=hidden;rotatable=0;points=[[0,0.5],[1,0.5]];portConstraint=eastwest;align=center;" vertex="1" parent="Jwd4gEh87zWLfQr8mGa5-38">
          <mxGeometry y="26" width="140" height="54" as="geometry" />
        </mxCell>
        <mxCell id="Jwd4gEh87zWLfQr8mGa5-40" value="Prediction" style="whiteSpace=wrap;html=1;rounded=0;shadow=0;comic=0;labelBackgroundColor=none;strokeWidth=1;fontFamily=Verdana;fontSize=12;align=center;" vertex="1" parent="1">
          <mxGeometry x="1315" y="440" width="90" height="50" as="geometry" />
        </mxCell>
        <mxCell id="Jwd4gEh87zWLfQr8mGa5-41" value="Log" style="shape=cylinder3;whiteSpace=wrap;html=1;boundedLbl=1;backgroundOutline=1;size=15;" vertex="1" parent="1">
          <mxGeometry x="1345" y="513" width="60" height="80" as="geometry" />
        </mxCell>
        <mxCell id="Jwd4gEh87zWLfQr8mGa5-46" value="&lt;font style=&quot;font-size: 22px;&quot;&gt;Training&lt;/font&gt;" style="text;html=1;strokeColor=none;fillColor=none;align=center;verticalAlign=middle;whiteSpace=wrap;rounded=0;fontSize=28;" vertex="1" parent="1">
          <mxGeometry x="30" y="123" width="260" height="30" as="geometry" />
        </mxCell>
        <mxCell id="Jwd4gEh87zWLfQr8mGa5-47" value="&lt;font style=&quot;font-size: 22px;&quot;&gt;Prediction&lt;/font&gt;" style="text;html=1;strokeColor=none;fillColor=none;align=center;verticalAlign=middle;whiteSpace=wrap;rounded=0;fontSize=28;" vertex="1" parent="1">
          <mxGeometry x="30" y="428" width="260" height="30" as="geometry" />
        </mxCell>
        <mxCell id="Jwd4gEh87zWLfQr8mGa5-48" style="edgeStyle=orthogonalEdgeStyle;rounded=0;orthogonalLoop=1;jettySize=auto;html=1;entryX=0;entryY=0.5;entryDx=0;entryDy=0;" edge="1" parent="1" source="1fdf3b25b50cf41e-2" target="Jwd4gEh87zWLfQr8mGa5-29">
          <mxGeometry relative="1" as="geometry" />
        </mxCell>
        <mxCell id="Jwd4gEh87zWLfQr8mGa5-49" style="edgeStyle=orthogonalEdgeStyle;rounded=0;orthogonalLoop=1;jettySize=auto;html=1;exitX=1;exitY=0.5;exitDx=0;exitDy=0;" edge="1" parent="1" source="1fdf3b25b50cf41e-2" target="Jwd4gEh87zWLfQr8mGa5-30">
          <mxGeometry relative="1" as="geometry" />
        </mxCell>
        <mxCell id="Jwd4gEh87zWLfQr8mGa5-54" value="" style="shape=flexArrow;endArrow=classic;html=1;rounded=0;entryX=0;entryY=0;entryDx=82.5;entryDy=0;entryPerimeter=0;endWidth=47;endSize=9.04;width=33;fillColor=default;exitX=0.286;exitY=0.996;exitDx=0;exitDy=0;exitPerimeter=0;" edge="1" parent="1" source="Jwd4gEh87zWLfQr8mGa5-25" target="Jwd4gEh87zWLfQr8mGa5-31">
          <mxGeometry width="50" height="50" relative="1" as="geometry">
            <mxPoint x="963" y="390" as="sourcePoint" />
            <mxPoint x="740" y="340" as="targetPoint" />
          </mxGeometry>
        </mxCell>
        <mxCell id="Jwd4gEh87zWLfQr8mGa5-56" style="edgeStyle=orthogonalEdgeStyle;rounded=0;orthogonalLoop=1;jettySize=auto;html=1;exitX=1;exitY=0.5;exitDx=0;exitDy=0;entryX=0;entryY=0.5;entryDx=0;entryDy=0;" edge="1" parent="1" source="Jwd4gEh87zWLfQr8mGa5-39" target="Jwd4gEh87zWLfQr8mGa5-40">
          <mxGeometry relative="1" as="geometry" />
        </mxCell>
        <mxCell id="Jwd4gEh87zWLfQr8mGa5-59" style="edgeStyle=orthogonalEdgeStyle;rounded=0;orthogonalLoop=1;jettySize=auto;html=1;entryX=0.007;entryY=0.62;entryDx=0;entryDy=0;entryPerimeter=0;" edge="1" parent="1" source="Jwd4gEh87zWLfQr8mGa5-3" target="Jwd4gEh87zWLfQr8mGa5-4">
          <mxGeometry relative="1" as="geometry" />
        </mxCell>
        <mxCell id="Jwd4gEh87zWLfQr8mGa5-60" style="edgeStyle=orthogonalEdgeStyle;rounded=0;orthogonalLoop=1;jettySize=auto;html=1;exitX=1;exitY=0.5;exitDx=0;exitDy=0;entryX=0;entryY=0.62;entryDx=0;entryDy=0;entryPerimeter=0;" edge="1" parent="1" source="Jwd4gEh87zWLfQr8mGa5-3" target="Jwd4gEh87zWLfQr8mGa5-5">
          <mxGeometry relative="1" as="geometry" />
        </mxCell>
        <mxCell id="Jwd4gEh87zWLfQr8mGa5-70" value="" style="endArrow=classic;html=1;rounded=0;exitX=1;exitY=0.31;exitDx=0;exitDy=0;exitPerimeter=0;" edge="1" parent="1" source="Jwd4gEh87zWLfQr8mGa5-33">
          <mxGeometry width="50" height="50" relative="1" as="geometry">
            <mxPoint x="690" y="390" as="sourcePoint" />
            <mxPoint x="880" y="510" as="targetPoint" />
          </mxGeometry>
        </mxCell>
        <mxCell id="Jwd4gEh87zWLfQr8mGa5-71" value="" style="endArrow=classic;html=1;rounded=0;exitX=1;exitY=0.31;exitDx=0;exitDy=0;exitPerimeter=0;entryX=0;entryY=0.584;entryDx=0;entryDy=0;entryPerimeter=0;" edge="1" parent="1">
          <mxGeometry width="50" height="50" relative="1" as="geometry">
            <mxPoint x="765" y="530" as="sourcePoint" />
            <mxPoint x="880" y="530" as="targetPoint" />
          </mxGeometry>
        </mxCell>
        <mxCell id="Jwd4gEh87zWLfQr8mGa5-76" value="50%" style="text;html=1;strokeColor=none;fillColor=none;align=center;verticalAlign=middle;whiteSpace=wrap;rounded=0;" vertex="1" parent="1">
          <mxGeometry x="1010" y="527" width="140" height="30" as="geometry" />
        </mxCell>
        <mxCell id="Jwd4gEh87zWLfQr8mGa5-75" value="" style="endArrow=classic;html=1;rounded=0;exitX=1.006;exitY=0.664;exitDx=0;exitDy=0;exitPerimeter=0;" edge="1" parent="1" source="Jwd4gEh87zWLfQr8mGa5-31">
          <mxGeometry width="50" height="50" relative="1" as="geometry">
            <mxPoint x="1065" y="530" as="sourcePoint" />
            <mxPoint x="1120" y="531" as="targetPoint" />
          </mxGeometry>
        </mxCell>
        <mxCell id="Jwd4gEh87zWLfQr8mGa5-78" value="" style="endArrow=classic;html=1;rounded=0;exitX=1.006;exitY=0.664;exitDx=0;exitDy=0;exitPerimeter=0;" edge="1" parent="1">
          <mxGeometry width="50" height="50" relative="1" as="geometry">
            <mxPoint x="1041" y="510" as="sourcePoint" />
            <mxPoint x="1120" y="510" as="targetPoint" />
          </mxGeometry>
        </mxCell>
        <mxCell id="Jwd4gEh87zWLfQr8mGa5-79" value="50%" style="text;html=1;strokeColor=none;fillColor=none;align=center;verticalAlign=middle;whiteSpace=wrap;rounded=0;" vertex="1" parent="1">
          <mxGeometry x="1010" y="483" width="140" height="30" as="geometry" />
        </mxCell>
      </root>
    </mxGraphModel>
  </diagram>
</mxfile>
